@startuml Diagrama de Classe
  class Aluno {
    +String Nome
    +String Endereco
    +Integer Matricula

    +Integer obterMatricula()
  }

  class Turma {
    +String Codigo
    +String Sala
    +String Horario
    +String NomeDisciplina
    +String RegistroProfessor
    +List Alunos
    +List obterAlunos()
    +Dict obterDadosTurma()  
  }

  class Professor {
    +String Nome
    +String Titulo
    +String Registro
    +String obterResgistro()
  }

  Aluno --> Turma : pertence à
  Professor --> Turma : ensina à
@enduml